<svg width="18" height="20" viewBox="0 0 19 24" fill="none" xmlns="http://www.w3.org/2000/svg">
<path d="M7.79717 16.8844C7.79717 15.8681 8.62103 15.0442 9.63731 15.0442C10.6536 15.0442 11.4774 15.8681 11.4774 16.8844C11.4774 17.9006 10.6536 18.7245 9.63731 18.7245C8.62103 18.7245 7.79717 17.9006 7.79717 16.8844Z" fill="#C2C3CB"/>
<path fill-rule="evenodd" clip-rule="evenodd" d="M4.26612 10.2563L3.87915 6.7736C3.82953 6.32709 3.82953 5.87645 3.87915 5.42994L3.90708 5.17858C4.20332 2.51235 6.29937 0.402737 8.96363 0.0892946C9.41119 0.0366414 9.86337 0.0366414 10.3109 0.0892947C12.9752 0.402737 15.0712 2.51235 15.3675 5.17858L15.3954 5.42994C15.445 5.87645 15.445 6.32709 15.3954 6.7736L15.0084 10.2563L15.8507 10.3236C17.179 10.4296 18.2636 11.4281 18.4789 12.743C18.928 15.4857 18.928 18.2831 18.4789 21.0257C18.2636 22.3406 17.179 23.3391 15.8507 23.4451L14.0153 23.5917C11.1013 23.8243 8.17337 23.8243 5.25934 23.5917L3.42395 23.4451C2.0957 23.3391 1.01111 22.3406 0.795796 21.0257C0.346714 18.2831 0.346714 15.4857 0.795796 12.743C1.01111 11.4281 2.0957 10.4296 3.42395 10.3236L4.26612 10.2563ZM9.17864 1.91683C9.48335 1.88098 9.79121 1.88098 10.0959 1.91683C11.9098 2.13024 13.3369 3.56653 13.5386 5.38179L13.5665 5.63315C13.6011 5.9446 13.6011 6.25894 13.5665 6.57039L13.1725 10.1163C10.8181 9.96468 8.45642 9.96468 6.10202 10.1163L5.70803 6.57039C5.67343 6.25894 5.67343 5.9446 5.70803 5.63315L5.73596 5.38179C5.93766 3.56653 7.36472 2.13024 9.17864 1.91683ZM13.8689 12.0114C11.0523 11.7865 8.22234 11.7865 5.40578 12.0114L3.57038 12.1579C3.0859 12.1966 2.69029 12.5608 2.61176 13.0404C2.19492 15.5861 2.19492 18.1826 2.61176 20.7283C2.69029 21.208 3.0859 21.5722 3.57038 21.6108L5.40578 21.7574C8.22234 21.9822 11.0523 21.9822 13.8689 21.7574L15.7043 21.6108C16.1888 21.5722 16.5844 21.208 16.6629 20.7283C17.0798 18.1826 17.0798 15.5861 16.6629 13.0404C16.5844 12.5608 16.1888 12.1966 15.7043 12.1579L13.8689 12.0114Z" fill="#C2C3CB"/>
</svg>
