<svg width="23" height="20" viewBox="0 0 23 20" fill="none" xmlns="http://www.w3.org/2000/svg">
<path fill-rule="evenodd" clip-rule="evenodd" d="M20.8475 1.69684C21.1732 1.37122 21.1732 0.843278 20.8475 0.517655C20.5219 0.192032 19.994 0.192032 19.6683 0.517655L1.88038 18.3056C1.55476 18.6312 1.55476 19.1592 1.88038 19.4848C2.206 19.8104 2.73394 19.8104 3.05957 19.4848L6.2246 16.3198C7.74359 17.0348 9.49309 17.5055 11.364 17.5055C14.3479 17.5055 17.0231 16.3081 18.9467 14.8317C19.9104 14.0921 20.7062 13.2671 21.2684 12.4569C21.8151 11.6692 22.2035 10.8047 22.2035 10.0012C22.2035 9.19777 21.8151 8.33329 21.2684 7.54554C20.7062 6.73541 19.9104 5.91031 18.9467 5.17072C18.6553 4.94706 18.3466 4.72979 18.0223 4.52212L20.8475 1.69684ZM16.811 5.73337L14.8423 7.70209C15.2788 8.36116 15.533 9.15151 15.533 10.0012C15.533 12.3037 13.6665 14.1703 11.364 14.1703C10.5142 14.1703 9.72389 13.9161 9.06481 13.4796L7.48978 15.0546C8.67438 15.5372 9.98774 15.8379 11.364 15.8379C13.906 15.8379 16.2337 14.8119 17.9314 13.5088C18.7785 12.8587 19.448 12.1552 19.8984 11.5061C20.3643 10.8347 20.5359 10.3095 20.5359 10.0012C20.5359 9.69294 20.3643 9.16774 19.8984 8.49632C19.448 7.84728 18.7785 7.14373 17.9314 6.49363C17.5832 6.22641 17.2086 5.97084 16.811 5.73337ZM10.2855 12.2589C10.612 12.4152 10.9778 12.5027 11.364 12.5027C12.7455 12.5027 13.8654 11.3827 13.8654 10.0012C13.8654 9.61506 13.7779 9.24932 13.6216 8.92277L10.2855 12.2589Z" fill="#C2C3CB"/>
<path d="M11.364 2.49693C12.5117 2.49693 13.6137 2.67408 14.6449 2.97611C14.8433 3.03422 14.9023 3.28252 14.7562 3.42869L13.8395 4.34539C13.7707 4.41415 13.6711 4.4417 13.5763 4.41989C12.8655 4.25635 12.1243 4.16456 11.364 4.16456C8.82189 4.16456 6.49426 5.19061 4.7965 6.49363C3.94946 7.14373 3.27996 7.84728 2.82954 8.49632C2.36359 9.16774 2.19204 9.69294 2.19204 10.0012C2.19204 10.3095 2.36359 10.8347 2.82954 11.5061C3.22291 12.073 3.78337 12.6814 4.48325 13.2594C4.61205 13.3658 4.62433 13.5605 4.5062 13.6787L3.71807 14.4668C3.61767 14.5672 3.45747 14.576 3.34867 14.4848C2.57825 13.8387 1.93525 13.1424 1.45951 12.4569C0.912826 11.6692 0.524414 10.8047 0.524414 10.0012C0.524414 9.19777 0.912826 8.33329 1.45951 7.54554C2.02172 6.73541 2.81753 5.91031 3.78117 5.17072C5.70477 3.69437 8.38001 2.49693 11.364 2.49693Z" fill="#C2C3CB"/>
<path d="M11.364 5.83218C11.4957 5.83218 11.6259 5.83828 11.7545 5.85023C11.9734 5.87057 12.0526 6.13224 11.8972 6.28766L10.5495 7.63539C9.82316 7.88539 9.24811 8.46043 8.99812 9.18675L7.65039 10.5345C7.49497 10.6899 7.23329 10.6107 7.21296 10.3918C7.20101 10.2632 7.1949 10.1329 7.1949 10.0012C7.1949 7.69873 9.06145 5.83218 11.364 5.83218Z" fill="#C2C3CB"/>
</svg>
