<svg width="18" height="20" viewBox="0 0 22 23" fill="none" xmlns="http://www.w3.org/2000/svg">
<path fill-rule="evenodd" clip-rule="evenodd" d="M5.10322 5.91091C5.10322 2.79634 7.62808 0.271484 10.7427 0.271484C13.8572 0.271484 16.3821 2.79634 16.3821 5.91091C16.3821 9.02549 13.8572 11.5503 10.7427 11.5503C7.62808 11.5503 5.10322 9.02549 5.10322 5.91091ZM10.7427 2.26187C8.72734 2.26187 7.09361 3.8956 7.09361 5.91091C7.09361 7.92623 8.72734 9.55996 10.7427 9.55996C12.758 9.55996 14.3917 7.92623 14.3917 5.91091C14.3917 3.8956 12.758 2.26187 10.7427 2.26187Z" fill="#C2C3CB"/>
<path fill-rule="evenodd" clip-rule="evenodd" d="M5.43495 15.5311C3.78606 15.5311 2.44937 16.8678 2.44937 18.5167V20.0935C2.44937 20.1175 2.46677 20.1379 2.49047 20.1418C7.95574 21.0341 13.5296 21.0341 18.9948 20.1418C19.0185 20.1379 19.0359 20.1175 19.0359 20.0935V18.5167C19.0359 16.8678 17.6992 15.5311 16.0504 15.5311H15.598C15.5631 15.5311 15.5283 15.5366 15.4951 15.5475L14.3466 15.9225C12.0048 16.6872 9.4805 16.6872 7.1387 15.9225L5.99023 15.5475C5.95699 15.5366 5.92223 15.5311 5.88726 15.5311H5.43495ZM0.458984 18.5167C0.458984 15.7686 2.6868 13.5407 5.43495 13.5407H5.88726C6.13207 13.5407 6.37534 13.5794 6.60805 13.6554L7.75652 14.0304C9.69687 14.664 11.7884 14.664 13.7288 14.0304L14.8773 13.6554C15.11 13.5794 15.3532 13.5407 15.598 13.5407H16.0504C18.7985 13.5407 21.0263 15.7685 21.0263 18.5167V20.0935C21.0263 21.0929 20.302 21.9451 19.3156 22.1062C13.6379 23.0332 7.84743 23.0332 2.16975 22.1062C1.18333 21.9451 0.458984 21.0929 0.458984 20.0935V18.5167Z" fill="#C2C3CB"/>
</svg>
