<svg width="16" height="16" viewBox="0 0 16 16" fill="none" xmlns="http://www.w3.org/2000/svg">
<path d="M1.6718 16.0056C1.24692 16.0056 0.822047 15.8491 0.486617 15.5136C-0.16188 14.8651 -0.16188 13.7918 0.486617 13.1433L13.1435 0.486373C13.792 -0.162124 14.8654 -0.162124 15.5139 0.486373C16.1624 1.13487 16.1624 2.20825 15.5139 2.85674L2.85699 15.5136C2.54392 15.8491 2.09668 16.0056 1.6718 16.0056Z" fill="#F9F9F9"/>
<path d="M14.3287 16.0056C13.9038 16.0056 13.4789 15.8491 13.1435 15.5136L0.486617 2.85674C-0.16188 2.20825 -0.16188 1.13487 0.486617 0.486373C1.13511 -0.162124 2.20849 -0.162124 2.85699 0.486373L15.5139 13.1433C16.1624 13.7918 16.1624 14.8651 15.5139 15.5136C15.1784 15.8491 14.7536 16.0056 14.3287 16.0056Z" fill="#F9F9F9"/>
</svg>
