<svg width="117" height="117" viewBox="0 0 117 117" fill="none" xmlns="http://www.w3.org/2000/svg">
<path d="M57.9545 93.9949C47.2252 84.339 38.8069 72.1896 38.0046 57.5059C37.2806 44.2521 44.3231 34.2379 58.4214 40.1439C65.0953 42.9396 71.4587 50.6393 70.3128 58.0609C69.0362 66.3292 58.5027 62.3819 54.5536 58.1501C45.3299 48.2665 43.4373 31.8851 52.6569 21.5675C63.5751 9.34906 74.9329 23.3724 74.8255 23.4077" stroke="white" stroke-width="2.09329" stroke-miterlimit="1.5" stroke-linecap="round" stroke-linejoin="round"/>
<path d="M42.5719 94.8242C43.8782 94.0961 45.3767 94.0149 46.8626 93.8559C51.7416 93.3332 57.2693 94.3597 61.4869 97.4709C58.0966 92.8961 55.1476 85.9063 57.1738 80.6141" stroke="white" stroke-width="2.09329" stroke-miterlimit="1.5" stroke-linecap="round" stroke-linejoin="round"/>
</svg>
