<svg width="34" height="61" viewBox="0 0 34 61" fill="none" xmlns="http://www.w3.org/2000/svg">
<path fill-rule="evenodd" clip-rule="evenodd" d="M13.0585 49.9929C11.3402 52.9818 9.21327 55.8034 7.18311 58.5814C5.40719 55.6685 3.73593 52.6848 2 49.7498C4.13749 46.7477 5.71386 43.2725 7.25502 39.9355C9.63203 43.4756 11.5658 46.8876 13.0585 49.9929Z" stroke="#AA9CFF" stroke-width="3.5008" stroke-miterlimit="1.5" stroke-linecap="round" stroke-linejoin="round"/>
<path fill-rule="evenodd" clip-rule="evenodd" d="M26.1541 19.2559C26.2392 16.4203 24.9305 13.5925 22.061 11.8859C20.9498 11.225 19.6335 10.9844 18.3372 10.7844C23.6036 10.6251 25.432 5.76349 26.1648 2C25.9103 5.37538 27.9111 9.02129 32.0001 9.35772C27.9296 11.4698 26.5326 15.3454 26.1541 19.2559Z" stroke="#A597FF" stroke-width="3.02784" stroke-miterlimit="1.5" stroke-linecap="round" stroke-linejoin="round"/>
</svg>
